<?xml version="1.0" encoding="UTF-8" standalone="no"?>
<!DOCTYPE svg PUBLIC "-//W3C//DTD SVG 1.1//EN" "http://www.w3.org/Graphics/SVG/1.1/DTD/svg11.dtd">
<svg width="100%" height="100%" viewBox="0 0 160 160" version="1.1" xmlns="http://www.w3.org/2000/svg" xmlns:xlink="http://www.w3.org/1999/xlink" xml:space="preserve" xmlns:serif="http://www.serif.com/" style="fill-rule:evenodd;clip-rule:evenodd;stroke-linejoin:round;stroke-miterlimit:2;">
      <style>
        g {
            fill: #103740;
        }
        @media (prefers-color-scheme: dark) {
            g {
                fill: white;
            }
        }
    </style>
    <g id="vixen" transform="matrix(0.629656,0,0,0.747511,-272.105,-309.972)">
        <rect x="432.149" y="414.671" width="254.107" height="214.044" style="fill:none;"/>
        <g transform="matrix(1.58817,0,0,1.33777,-313.755,-154.43)">
            <g transform="matrix(0.922929,0,0,0.922929,30.8961,0)">
                <path d="M484.448,555.189C484.467,540.504 484.541,525.485 489.46,511.648C494.379,497.812 505.163,485.145 519.53,482.107C527.52,480.419 535.801,481.799 543.849,483.181C563.53,486.562 583.211,489.943 602.892,493.324C606.343,493.917 610.315,494.892 611.769,498.078C613.939,502.834 608.786,507.53 604.3,510.215C589.921,518.824 575.345,527.102 560.586,535.042C554.174,538.491 547.476,541.95 540.208,542.39C523.905,543.378 507.939,549.377 495.019,559.369C492.57,561.264 489.27,563.384 486.67,561.703C484.655,560.402 484.445,557.588 484.448,555.189M527.573,525.691C539.824,521.59 552.075,517.488 564.327,513.386C565.781,512.899 567.438,512.206 567.839,510.727C559.612,507.888 551.281,505.028 542.609,504.293C533.937,503.558 524.748,505.163 517.865,510.488C510.981,515.813 507.021,525.347 509.808,533.592C515.141,529.869 521.405,527.757 527.573,525.691Z" style="fill-rule:nonzero;"/>
            </g>
            <path d="M532.299,571.335C554.439,543.893 586.921,524.588 622.032,520.579C599.896,535.624 577.866,551.619 559.872,571.244C552.526,571.19 542.758,571.232 532.299,571.335Z"/>
        </g>
    </g>
</svg>
